# xmcd
#
# Track frame offsets:
#  150
#  17706
#  31077
#  51448
#  65883
#  81924
#  94783
#  112936
#  132862
#  152782
#  166679
#  178970
#  192474
#  205812
#  223789
#  241472
#  257711
#  273311
#  281491
#
# Disc length: 3977 seconds
#
# Revision: 0
# Processed by: cddbd v1.5.1PL0 Copyright (c) Steve Scherf et al.
# Submitted via: Collectorz.com Music Collector 6.9
#
DISCID=170f8713
DTITLE=Lisa Loeb - Live - Concertgebouw Brugge, Belgium - 13 Sept 2003
DYEAR=1900
DGENRE=
TTITLE0=Do You Sleep
TTITLE1=Alone
TTITLE2=Payback
TTITLE3=Drops Me Down
TTITLE4=Waiting For Wednesday
TTITLE5=Truthfully
TTITLE6=Everyday
TTITLE7=Falling In Love
TTITLE8=Take Me Back
TTITLE9=Stay
TTITLE10=Sandalwood
TTITLE11=Solo ???
TTITLE12=Solo ???
TTITLE13=Solo ???
TTITLE14=Taffy
TTITLE15=Rose Colored Times
TTITLE16=You Don't Know Me
TTITLE17=Solo ???
TTITLE18=I Do
EXTD=
EXTT0=
EXTT1=
EXTT2=
EXTT3=
EXTT4=
EXTT5=
EXTT6=
EXTT7=
EXTT8=
EXTT9=
EXTT10=
EXTT11=
EXTT12=
EXTT13=
EXTT14=
EXTT15=
EXTT16=
EXTT17=
EXTT18=
PLAYORDER=
